<svg width="290" height="73" viewBox="0 0 290 73" fill="none" xmlns="http://www.w3.org/2000/svg">
<g clip-path="url(#clip0_1_171)">
<path d="M0.181706 59.7085L41.0823 -2.45233C41.0823 -2.45233 41.4996 -3 42.4735 -3C43.4473 -3 43.8646 -2.45233 43.8646 -2.45233L48.8729 5.07817C48.8729 5.07817 49.1511 5.81753 49.1511 6.31043C49.1511 6.80334 48.8729 7.54269 48.8729 7.54269L23.1361 48.4812C23.1361 48.4812 23.1378 49.9098 23.6926 50.535C24.2369 51.1484 25.6403 51.3565 25.6403 51.3565H43.4473C43.4473 51.3565 45.3401 51.0112 46.3688 50.3981C47.3223 49.8296 48.4555 48.4812 48.4555 48.4812L60.9761 27.9435C60.9761 27.9435 62.0315 27.1872 62.7846 27.2589C63.3892 27.3164 64.1758 27.9435 64.1758 27.9435L84.7652 59.8454C84.7652 59.8454 85.1826 60.53 84.9044 61.6253C84.6261 62.7207 82.8176 62.9945 82.8176 62.9945H76.9746C76.9746 62.9945 76.1666 62.8414 75.7226 62.5838C75.1931 62.2765 74.6096 61.4884 74.6096 61.4884L64.4541 45.8798C64.4541 45.8798 63.6477 45.3105 63.0629 45.3321C62.5281 45.3521 61.8108 45.8798 61.8108 45.8798L52.6291 61.4884C52.6291 61.4884 52.4899 61.7623 51.9335 62.3099C51.377 62.8576 50.5423 62.9945 50.5423 62.9945H2.12935C2.12935 62.9945 1.29465 63.1314 0.459941 62.0361C-0.374767 60.9408 0.181706 59.7085 0.181706 59.7085Z" fill="url(#paint0_linear_1_171)"/>
<path d="M92.482 63V25.2H101.23V55.872H120.184V63H92.482ZM142.509 63V57.33L141.969 56.088V45.936C141.969 44.136 141.411 42.732 140.295 41.724C139.215 40.716 137.541 40.212 135.273 40.212C133.725 40.212 132.195 40.464 130.683 40.968C129.207 41.436 127.947 42.084 126.903 42.912L123.879 37.026C125.463 35.91 127.371 35.046 129.603 34.434C131.835 33.822 134.103 33.516 136.407 33.516C140.835 33.516 144.273 34.56 146.721 36.648C149.169 38.736 150.393 41.994 150.393 46.422V63H142.509ZM133.653 63.432C131.385 63.432 129.441 63.054 127.821 62.298C126.201 61.506 124.959 60.444 124.095 59.112C123.231 57.78 122.799 56.286 122.799 54.63C122.799 52.902 123.213 51.39 124.041 50.094C124.905 48.798 126.255 47.79 128.091 47.07C129.927 46.314 132.321 45.936 135.273 45.936H142.995V50.85H136.191C134.211 50.85 132.843 51.174 132.087 51.822C131.367 52.47 131.007 53.28 131.007 54.252C131.007 55.332 131.421 56.196 132.249 56.844C133.113 57.456 134.283 57.762 135.759 57.762C137.163 57.762 138.423 57.438 139.539 56.79C140.655 56.106 141.465 55.116 141.969 53.82L143.265 57.708C142.653 59.58 141.537 61.002 139.917 61.974C138.297 62.946 136.209 63.432 133.653 63.432ZM164.132 63L153.656 33.948H161.594L170.288 58.95H166.508L175.58 33.948H182.708L191.51 58.95H187.73L196.694 33.948H204.146L193.616 63H185.462L177.74 41.562H180.224L172.232 63H164.132ZM226.535 63.648C223.619 63.648 220.901 63.18 218.381 62.244C215.897 61.272 213.737 59.904 211.901 58.14C210.065 56.376 208.625 54.306 207.581 51.93C206.573 49.554 206.069 46.944 206.069 44.1C206.069 41.256 206.573 38.646 207.581 36.27C208.625 33.894 210.065 31.824 211.901 30.06C213.773 28.296 215.951 26.946 218.435 26.01C220.919 25.038 223.637 24.552 226.589 24.552C229.865 24.552 232.817 25.128 235.445 26.28C238.109 27.396 240.341 29.052 242.141 31.248L236.525 36.432C235.229 34.956 233.789 33.858 232.205 33.138C230.621 32.382 228.893 32.004 227.021 32.004C225.257 32.004 223.637 32.292 222.161 32.868C220.685 33.444 219.407 34.272 218.327 35.352C217.247 36.432 216.401 37.71 215.789 39.186C215.213 40.662 214.925 42.3 214.925 44.1C214.925 45.9 215.213 47.538 215.789 49.014C216.401 50.49 217.247 51.768 218.327 52.848C219.407 53.928 220.685 54.756 222.161 55.332C223.637 55.908 225.257 56.196 227.021 56.196C228.893 56.196 230.621 55.836 232.205 55.116C233.789 54.36 235.229 53.226 236.525 51.714L242.141 56.898C240.341 59.094 238.109 60.768 235.445 61.92C232.817 63.072 229.847 63.648 226.535 63.648ZM260.276 63.432C257.18 63.432 254.426 62.784 252.014 61.488C249.638 60.192 247.748 58.428 246.344 56.196C244.976 53.928 244.292 51.354 244.292 48.474C244.292 45.558 244.976 42.984 246.344 40.752C247.748 38.484 249.638 36.72 252.014 35.46C254.426 34.164 257.18 33.516 260.276 33.516C263.336 33.516 266.072 34.164 268.484 35.46C270.896 36.72 272.786 38.466 274.154 40.698C275.522 42.93 276.206 45.522 276.206 48.474C276.206 51.354 275.522 53.928 274.154 56.196C272.786 58.428 270.896 60.192 268.484 61.488C266.072 62.784 263.336 63.432 260.276 63.432ZM260.276 56.52C261.68 56.52 262.94 56.196 264.056 55.548C265.172 54.9 266.054 53.982 266.702 52.794C267.35 51.57 267.674 50.13 267.674 48.474C267.674 46.782 267.35 45.342 266.702 44.154C266.054 42.966 265.172 42.048 264.056 41.4C262.94 40.752 261.68 40.428 260.276 40.428C258.872 40.428 257.612 40.752 256.496 41.4C255.38 42.048 254.48 42.966 253.796 44.154C253.148 45.342 252.824 46.782 252.824 48.474C252.824 50.13 253.148 51.57 253.796 52.794C254.48 53.982 255.38 54.9 256.496 55.548C257.612 56.196 258.872 56.52 260.276 56.52Z" fill="white"/>
<path d="M274.264 19.5998H280.912V21.1478H278.488V27.9998H276.688V21.1478H274.264V19.5998ZM281.892 19.5998H284.256L286.584 25.7678L288.84 19.5998H291.156V27.9998H289.44V22.3718L287.256 27.9998H285.792L283.608 22.3718V27.9998H281.892V19.5998Z" fill="white"/>
</g>
<defs>
<linearGradient id="paint0_linear_1_171" x1="42.4999" y1="-3" x2="42.4999" y2="63" gradientUnits="userSpaceOnUse">
<stop stop-color="#FF8E26"/>
<stop offset="1" stop-color="#B7540C"/>
</linearGradient>
<clipPath id="clip0_1_171">
<rect width="290" height="73" fill="white"/>
</clipPath>
</defs>
</svg>
