<svg width="107" height="108" viewBox="0 0 107 108" fill="none" xmlns="http://www.w3.org/2000/svg">
<path d="M63.7177 82.9748C63.7147 83.6832 63.432 84.3618 62.931 84.8628C62.43 85.3637 61.7514 85.6465 61.043 85.6495H19.329C18.6205 85.6465 17.9419 85.3637 17.441 84.8628C16.94 84.3618 16.6573 83.6832 16.6543 82.9748V78.1153C16.6573 77.4068 16.94 76.7282 17.441 76.2272C17.9419 75.7263 18.6205 75.4435 19.329 75.4406H61.043C61.7519 75.4421 62.4314 75.7243 62.9326 76.2256C63.4339 76.7269 63.7162 77.4063 63.7177 78.1153V82.9748ZM48.1369 68.4075C47.7266 68.4078 47.3203 68.3268 46.9414 68.1693C46.5626 68.0118 46.2187 67.7808 45.9295 67.4897L27.9274 49.4932C27.342 48.9078 27.0131 48.1138 27.0131 47.2859C27.0131 46.458 27.342 45.664 27.9274 45.0785C28.5129 44.4931 29.3069 44.1642 30.1348 44.1642C30.9627 44.1642 31.7567 44.4931 32.3421 45.0785L50.3386 63.0863C50.7754 63.5226 51.073 64.0787 51.1936 64.6842C51.3143 65.2897 51.2525 65.9174 51.0161 66.4878C50.7798 67.0582 50.3795 67.5456 49.8659 67.8884C49.3524 68.2311 48.7487 68.4137 48.1312 68.4132L48.1369 68.4075ZM89.4117 73.9934L64.3878 48.9639L70.4973 42.86L52.6304 24.993L35.9065 41.7169L53.7734 59.5782L59.9787 53.3785L85.0083 78.4081C85.2981 78.6979 85.6423 78.9279 86.021 79.0848C86.3997 79.2416 86.8057 79.3224 87.2156 79.3224C87.6255 79.3224 88.0315 79.2416 88.4102 79.0848C88.7889 78.9279 89.133 78.6979 89.4229 78.4081C89.7128 78.1182 89.9427 77.7741 90.0996 77.3953C90.2565 77.0166 90.3372 76.6107 90.3372 76.2007C90.3372 75.7908 90.2565 75.3849 90.0996 75.0061C89.9427 74.6274 89.7128 74.2833 89.4229 73.9934H89.4117ZM76.2916 40.2472C75.8826 40.2475 75.4776 40.167 75.0998 40.0105C74.722 39.8539 74.3788 39.6244 74.0899 39.335L56.0821 21.3329C55.7923 21.043 55.5623 20.6989 55.4054 20.3201C55.2486 19.9414 55.1678 19.5355 55.1678 19.1255C55.1678 18.7156 55.2486 18.3097 55.4054 17.9309C55.5623 17.5522 55.7923 17.2081 56.0821 16.9182C56.372 16.6283 56.7161 16.3984 57.0949 16.2415C57.4736 16.0846 57.8795 16.0039 58.2895 16.0039C58.6994 16.0039 59.1053 16.0846 59.4841 16.2415C59.8628 16.3984 60.2069 16.6283 60.4968 16.9182L78.4933 34.9203C78.9298 35.3563 79.2273 35.9119 79.3481 36.5169C79.4689 37.1219 79.4076 37.7491 79.1719 38.3193C78.9362 38.8894 78.5368 39.3769 78.0241 39.7201C77.5114 40.0632 76.9085 40.2467 76.2916 40.2472Z" fill="url(#paint0_linear_1_348)" fill-opacity="0.95"/>
<defs>
<linearGradient id="paint0_linear_1_348" x1="16.6543" y1="23.8349" x2="32.3346" y2="97.4062" gradientUnits="userSpaceOnUse">
<stop offset="0.095796" stop-color="#201D32"/>
<stop offset="0.515625" stop-color="#100B2D"/>
<stop offset="1" stop-color="#201D32"/>
</linearGradient>
</defs>
</svg>
