<svg width="91" height="91" viewBox="0 0 91 91" fill="none" xmlns="http://www.w3.org/2000/svg">
<g clip-path="url(#clip0_1_407)">
<path d="M32.0277 7.38636H2.90806V0.106445H-0.00390625V7.38636V11.7543V80.1855V83.0975V90.3774H2.90806V83.0975H32.0277V90.3774H34.9397V83.0975V80.1855V11.7543V7.38636V0.106445H32.0277V7.38636ZM32.0277 11.7543V80.1855H2.90806V11.7543V10.2983H32.0277V11.7543Z" fill="url(#paint0_linear_1_407)" fill-opacity="0.95"/>
<path d="M10.1902 26.3138H24.7501C27.1582 26.3138 29.118 24.3541 29.118 21.9459V17.5779C29.118 15.1697 27.1582 13.21 24.7501 13.21H10.1902C7.78202 13.21 5.82227 15.1697 5.82227 17.5779V21.9459C5.82227 24.3541 7.78202 26.3138 10.1902 26.3138ZM8.73423 17.5779C8.73423 16.7742 9.38651 16.1219 10.1902 16.1219H24.7501C25.5538 16.1219 26.206 16.7742 26.206 17.5779V21.9459C26.206 22.7496 25.5538 23.4018 24.7501 23.4018H10.1902C9.38651 23.4018 8.73423 22.7496 8.73423 21.9459V17.5779Z" fill="url(#paint1_linear_1_407)" fill-opacity="0.95"/>
<path d="M18.9225 39.4189H16.0105V43.7869H11.6426V46.6989H16.0105V51.0668H18.9225V46.6989H23.2904V43.7869H18.9225V39.4189Z" fill="url(#paint2_linear_1_407)" fill-opacity="0.95"/>
<path d="M77.1635 26.3142H75.1906C78.1652 23.9103 80.0755 20.2369 80.0755 16.1223V11.7543C80.0755 5.33197 74.8499 0.106445 68.4276 0.106445H65.5156C59.0933 0.106445 53.8678 5.33197 53.8678 11.7543V16.1223C53.8678 20.2369 55.778 23.9103 58.7526 26.3142H56.7797C49.5537 26.3142 43.6759 32.192 43.6759 39.418V53.9778C43.6759 58.7957 47.5939 62.7137 52.4118 62.7137V77.5619V86.3691V90.3774H81.5314V62.7137C86.3493 62.7137 90.2673 58.7957 90.2673 53.9778V39.418C90.2673 32.192 84.3895 26.3142 77.1635 26.3142ZM56.7797 11.7543C56.7797 6.93646 60.6978 3.01841 65.5156 3.01841H68.4276C73.2454 3.01841 77.1635 6.93646 77.1635 11.7543V14.1247C76.8068 13.8247 76.5331 13.4243 76.4137 12.9482L76.37 12.7706C75.7934 10.457 73.7245 8.84235 71.3396 8.84235H62.6037C60.2188 8.84235 58.1498 10.457 57.5718 12.775L57.531 12.9439C57.4102 13.4229 57.1364 13.8233 56.7797 14.1247V11.7543ZM56.8583 17.3351C58.5546 16.8095 59.9057 15.4452 60.3556 13.6456L60.3964 13.4767C60.6512 12.4619 61.5583 11.7543 62.6037 11.7543H71.3396C72.385 11.7543 73.292 12.4619 73.5454 13.4724L73.5891 13.65C74.0375 15.4467 75.3886 16.8095 77.0849 17.3351C76.4821 22.3845 72.1797 26.3142 66.9716 26.3142C61.7636 26.3142 57.4611 22.383 56.8583 17.3351ZM71.0717 29.2261C70.4689 30.9165 68.8673 32.1381 66.9716 32.1381C65.0759 32.1381 63.4743 30.9165 62.8716 29.2261H71.0717ZM52.4118 59.8018C49.1999 59.8018 46.5878 57.1897 46.5878 53.9778V51.0659H52.4118V59.8018ZM52.4118 48.1539H46.5878V45.2419H52.4118V48.1539ZM65.5156 87.4655H55.3237V85.7227L65.5156 83.4571V87.4655ZM65.5156 80.4724L55.3237 82.7364V79.8958L65.5156 77.6317V80.4724ZM65.5156 74.6499L55.3237 76.9154V72.9056H65.5156V74.6499ZM78.6195 87.4655H68.4276V72.9056H78.6195V87.4655ZM78.6195 69.9937H68.4276V65.6257H65.5156V69.9937H55.3237V59.8018H78.6195V69.9937ZM87.3554 53.9778C87.3554 57.1897 84.7433 59.8018 81.5314 59.8018V51.0659H87.3554V53.9778ZM87.3554 48.1539H81.5314V45.2419H87.3554V48.1539ZM87.3554 42.33H81.5314V36.506H78.6195V56.8898H55.3237V36.506H52.4118V42.33H46.5878V39.418C46.5878 33.7994 51.1611 29.2261 56.7797 29.2261H59.8387C60.5158 32.5443 63.4554 35.0501 66.9716 35.0501C70.4878 35.0501 73.4274 32.5443 74.1045 29.2261H77.1635C82.7821 29.2261 87.3554 33.7994 87.3554 39.418V42.33Z" fill="url(#paint3_linear_1_407)" fill-opacity="0.95"/>
<path d="M68.4275 40.874H65.5155V43.786H62.6035V46.698H65.5155V49.6099H68.4275V46.698H71.3394V43.786H68.4275V40.874Z" fill="url(#paint4_linear_1_407)" fill-opacity="0.95"/>
<path d="M47.2355 67.233L41.4121 64.3213L40.1099 66.9258L45.9333 69.8375L47.2355 67.233Z" fill="url(#paint5_linear_1_407)" fill-opacity="0.95"/>
<path d="M46.5885 74.3613H39.3086V77.2733H46.5885V74.3613Z" fill="url(#paint6_linear_1_407)" fill-opacity="0.95"/>
<path d="M40.1118 84.7041L41.4141 87.3086L47.2375 84.3969L45.9352 81.7924L40.1118 84.7041Z" fill="url(#paint7_linear_1_407)" fill-opacity="0.95"/>
</g>
<defs>
<linearGradient id="paint0_linear_1_407" x1="-0.00390595" y1="10.2565" x2="43.3547" y2="84.691" gradientUnits="userSpaceOnUse">
<stop offset="0.095796" stop-color="#201D32"/>
<stop offset="0.515625" stop-color="#100B2D"/>
<stop offset="1" stop-color="#201D32"/>
</linearGradient>
<linearGradient id="paint1_linear_1_407" x1="5.82227" y1="14.6834" x2="7.62869" y2="28.9255" gradientUnits="userSpaceOnUse">
<stop offset="0.095796" stop-color="#201D32"/>
<stop offset="0.515625" stop-color="#100B2D"/>
<stop offset="1" stop-color="#201D32"/>
</linearGradient>
<linearGradient id="paint2_linear_1_407" x1="11.6426" y1="40.7286" x2="14.4028" y2="52.9696" gradientUnits="userSpaceOnUse">
<stop offset="0.095796" stop-color="#201D32"/>
<stop offset="0.515625" stop-color="#100B2D"/>
<stop offset="1" stop-color="#201D32"/>
</linearGradient>
<linearGradient id="paint3_linear_1_407" x1="43.6759" y1="10.2565" x2="80.2485" y2="93.9698" gradientUnits="userSpaceOnUse">
<stop offset="0.095796" stop-color="#201D32"/>
<stop offset="0.515625" stop-color="#100B2D"/>
<stop offset="1" stop-color="#201D32"/>
</linearGradient>
<linearGradient id="paint4_linear_1_407" x1="62.6035" y1="41.8563" x2="64.6737" y2="51.037" gradientUnits="userSpaceOnUse">
<stop offset="0.095796" stop-color="#201D32"/>
<stop offset="0.515625" stop-color="#100B2D"/>
<stop offset="1" stop-color="#201D32"/>
</linearGradient>
<linearGradient id="paint5_linear_1_407" x1="41.2657" y1="64.6141" x2="40.1292" y2="67.605" gradientUnits="userSpaceOnUse">
<stop offset="0.095796" stop-color="#201D32"/>
<stop offset="0.515625" stop-color="#100B2D"/>
<stop offset="1" stop-color="#201D32"/>
</linearGradient>
<linearGradient id="paint6_linear_1_407" x1="39.3086" y1="74.6888" x2="39.5963" y2="77.8786" gradientUnits="userSpaceOnUse">
<stop offset="0.095796" stop-color="#201D32"/>
<stop offset="0.515625" stop-color="#100B2D"/>
<stop offset="1" stop-color="#201D32"/>
</linearGradient>
<linearGradient id="paint7_linear_1_407" x1="42.0688" y1="86.9812" x2="45.9039" y2="81.8321" gradientUnits="userSpaceOnUse">
<stop offset="0.095796" stop-color="#201D32"/>
<stop offset="0.515625" stop-color="#100B2D"/>
<stop offset="1" stop-color="#201D32"/>
</linearGradient>
<clipPath id="clip0_1_407">
<rect width="90.271" height="90.271" fill="white" transform="translate(0 0.105469)"/>
</clipPath>
</defs>
</svg>
