<svg width="91" height="91" viewBox="0 0 91 91" fill="none" xmlns="http://www.w3.org/2000/svg">
<g clip-path="url(#clip0_1_370)">
<path d="M68.1405 15.4876C72.2417 15.4876 75.5663 12.1629 75.5663 8.06174C75.5663 3.96058 72.2417 0.635925 68.1405 0.635925C64.0393 0.635925 60.7147 3.96058 60.7147 8.06174C60.7147 12.1629 64.0393 15.4876 68.1405 15.4876Z" fill="url(#paint0_linear_1_370)" fill-opacity="0.95"/>
<path d="M85.5391 58.7248H84.9141V55.4904C85.8022 54.8194 86.3477 53.7633 86.342 52.615L86.2098 26.2921C86.1865 21.64 82.3828 17.8553 77.7307 17.8553H74.0582C73.5888 19.0814 70.1199 28.1437 69.6166 29.4592L70.6639 24.526C70.7374 24.1796 70.6841 23.8185 70.5135 23.508L69.0755 20.8924L70.3539 18.5673C70.4426 18.4061 70.4394 18.2099 70.3458 18.0516C70.252 17.8931 70.0819 17.7961 69.8976 17.7961H66.3887C66.2048 17.7961 66.0343 17.8932 65.9405 18.0516C65.8467 18.2101 65.8439 18.4061 65.9324 18.5673L67.2108 20.8924L65.7676 23.5177C65.6001 23.822 65.5456 24.1757 65.6133 24.5167L66.5289 29.4592C66.0712 28.2851 62.6301 19.1299 62.1331 17.8553H58.4953C53.8435 17.8553 50.0397 21.64 50.0162 26.2939L49.9741 35.7062L44.698 39.9078L42.1918 26.211C41.8122 24.136 40.1379 22.6434 38.1823 22.6434C35.3929 22.6434 33.6254 22.6434 31.1123 22.6434C29.1609 22.6434 27.4817 24.1401 27.1028 26.211L25.6941 33.9094L26.1178 33.8812L31.8397 28.0843L26.7176 37.0264L15.7486 37.7551C13.9973 37.8714 12.6718 39.3852 12.7882 41.1367C12.8998 42.8164 14.2969 44.1042 15.9561 44.1042C16.027 44.1042 16.0982 44.1019 16.1698 44.0969L28.8389 43.2552C29.9008 43.1849 30.8568 42.5874 31.3857 41.6639L37.3547 31.2434L34.1434 43.2436C33.6684 45.019 32.1208 46.2209 30.3843 46.3389C28.657 46.4523 30.0472 46.36 23.334 46.8063L20.8528 60.3659C20.6395 61.5326 21.4658 62.613 22.5575 62.613C23.0722 62.613 27.0649 62.613 27.6335 62.613V86.7985C27.6335 89.0411 29.4514 90.8592 31.6941 90.8592C33.9368 90.8592 35.7547 89.0411 35.7547 86.7985V62.6133C36.5796 62.6133 37.3997 62.6133 38.2034 62.6133V86.7988C38.2034 88.1961 37.7595 89.4907 37.0072 90.5523C37.4843 90.7492 38.0065 90.8592 38.5548 90.8592C40.7975 90.8592 42.6154 89.0413 42.6154 86.7986V62.6133C44.2403 62.6133 45.6608 62.6133 46.7358 62.6133C47.8254 62.6133 48.6535 61.5308 48.4405 60.3663L46.1601 47.9036L55.7805 40.2424C56.6298 39.5663 57.1266 38.5414 57.1315 37.4557L57.1816 26.3282C57.1816 26.3251 57.1816 26.3219 57.1816 26.3191C57.1864 25.9386 57.4972 25.6332 57.8775 25.6357C58.258 25.638 58.5651 25.9471 58.5651 26.3275L58.5667 86.5597C58.5667 88.9343 60.4917 90.8594 62.8664 90.8594C65.2411 90.8594 67.166 88.9345 67.166 86.5597V52.1925V52.1924H69.0224V52.1925V86.5596C69.0224 88.9341 70.9474 90.8592 73.3221 90.8592C75.6968 90.8592 77.6217 88.9343 77.6217 86.5596V79.2358C75.907 78.3305 74.735 76.5295 74.735 74.4594V60.2014C74.735 58.1312 75.907 56.3305 77.6217 55.425C77.6217 52.3551 77.5621 31.3972 77.547 26.1905C77.5458 25.7759 77.8809 25.4389 78.2958 25.4375C78.7103 25.4363 79.0474 25.7715 79.0486 26.1863C79.0488 26.2318 79.047 26.2791 79.0433 26.3282L79.1756 52.6511C79.1816 53.8735 79.8143 54.9596 80.7394 55.5922V58.7252H80.1336C79.3182 58.7252 78.6572 59.3863 78.6572 60.2016V74.4596C78.6572 75.275 79.3184 75.936 80.1336 75.936H85.5386C86.354 75.936 87.015 75.2749 87.015 74.4596V60.2016C87.0159 59.386 86.3547 58.7248 85.5391 58.7248Z" fill="url(#paint1_linear_1_370)" fill-opacity="0.95"/>
<path d="M48.3386 1.03074C47.8236 0.474656 46.9549 0.441686 46.3987 0.956335L41.7406 5.27064C41.1845 5.78581 41.151 6.65432 41.6662 7.21075C41.9366 7.50272 42.3044 7.65064 42.6736 7.65064C43.0074 7.65064 43.342 7.52969 43.6061 7.28515L48.2642 2.97085C48.8205 2.45567 48.8538 1.58717 48.3386 1.03074Z" fill="url(#paint2_linear_1_370)" fill-opacity="0.95"/>
<path d="M55.5175 7.32184C55.352 6.58222 54.6184 6.11535 53.8782 6.28197L44.7023 8.33457C43.9622 8.49994 43.4967 9.23392 43.6621 9.97389C43.8051 10.6128 44.3719 11.0474 45.0005 11.0474C45.0998 11.0474 45.2006 11.0365 45.3014 11.0139L54.4773 8.96135C55.2173 8.79562 55.6831 8.06164 55.5175 7.32184Z" fill="url(#paint3_linear_1_370)" fill-opacity="0.95"/>
<path d="M9.89243 34.884V39.0193C10.5041 37.079 12.0251 35.5212 13.9869 34.884H9.89243Z" fill="url(#paint4_linear_1_370)" fill-opacity="0.95"/>
<path d="M5.90719 34.884C5.52019 34.884 5.20689 35.1976 5.20689 35.5843V38.9338C5.20689 39.3205 5.52054 39.6341 5.90719 39.6341H7.28276V34.884H5.90719Z" fill="url(#paint5_linear_1_370)" fill-opacity="0.95"/>
<path d="M3.95406 28.0607C3.56742 28.0607 3.25376 28.3744 3.25376 28.761V32.1106C3.25376 32.4976 3.56742 32.8109 3.95406 32.8109H5.97228V28.0607H3.95406Z" fill="url(#paint6_linear_1_370)" fill-opacity="0.95"/>
<path d="M17.8992 28.0607H8.58384V32.8107H17.8992C18.2858 32.8109 18.5995 32.4976 18.5995 32.1106V28.761C18.5995 28.3744 18.2858 28.0607 17.8992 28.0607Z" fill="url(#paint7_linear_1_370)" fill-opacity="0.95"/>
<path d="M6.5107 20.9973C6.12406 20.9973 5.8104 21.3109 5.8104 21.6976V25.0471C5.81058 25.4341 6.12406 25.7474 6.5107 25.7474H17.5399V20.9973H6.5107Z" fill="url(#paint8_linear_1_370)" fill-opacity="0.95"/>
<path d="M20.4576 20.9973H19.4745V25.7474H20.4576C20.8442 25.7474 21.1579 25.4341 21.1579 25.0471V21.6976C21.1579 21.3107 20.8444 20.9973 20.4576 20.9973Z" fill="url(#paint9_linear_1_370)" fill-opacity="0.95"/>
<path d="M34.6422 20.0404C38.5155 20.0404 41.6555 16.9004 41.6555 13.0271C41.6555 9.1538 38.5155 6.01385 34.6422 6.01385C30.7689 6.01385 27.629 9.1538 27.629 13.0271C27.629 16.9004 30.7689 20.0404 34.6422 20.0404Z" fill="url(#paint10_linear_1_370)" fill-opacity="0.95"/>
</g>
<defs>
<linearGradient id="paint0_linear_1_370" x1="60.7147" y1="2.30585" x2="64.2341" y2="17.9137" gradientUnits="userSpaceOnUse">
<stop offset="0.095796" stop-color="#201D32"/>
<stop offset="0.515625" stop-color="#100B2D"/>
<stop offset="1" stop-color="#201D32"/>
</linearGradient>
<linearGradient id="paint1_linear_1_370" x1="12.7811" y1="26.0113" x2="29.8476" y2="102.911" gradientUnits="userSpaceOnUse">
<stop offset="0.095796" stop-color="#201D32"/>
<stop offset="0.515625" stop-color="#100B2D"/>
<stop offset="1" stop-color="#201D32"/>
</linearGradient>
<linearGradient id="paint2_linear_1_370" x1="41.3006" y1="1.38479" x2="42.9029" y2="8.83663" gradientUnits="userSpaceOnUse">
<stop offset="0.095796" stop-color="#201D32"/>
<stop offset="0.515625" stop-color="#100B2D"/>
<stop offset="1" stop-color="#201D32"/>
</linearGradient>
<linearGradient id="paint3_linear_1_370" x1="43.6288" y1="6.78785" x2="44.1059" y2="12.0446" gradientUnits="userSpaceOnUse">
<stop offset="0.095796" stop-color="#201D32"/>
<stop offset="0.515625" stop-color="#100B2D"/>
<stop offset="1" stop-color="#201D32"/>
</linearGradient>
<linearGradient id="paint4_linear_1_370" x1="9.89243" y1="35.349" x2="10.8812" y2="39.6907" gradientUnits="userSpaceOnUse">
<stop offset="0.095796" stop-color="#201D32"/>
<stop offset="0.515625" stop-color="#100B2D"/>
<stop offset="1" stop-color="#201D32"/>
</linearGradient>
<linearGradient id="paint5_linear_1_370" x1="5.20689" y1="35.4181" x2="7.3445" y2="39.561" gradientUnits="userSpaceOnUse">
<stop offset="0.095796" stop-color="#201D32"/>
<stop offset="0.515625" stop-color="#100B2D"/>
<stop offset="1" stop-color="#201D32"/>
</linearGradient>
<linearGradient id="paint6_linear_1_370" x1="3.25376" y1="28.5948" x2="5.04288" y2="33.1358" gradientUnits="userSpaceOnUse">
<stop offset="0.095796" stop-color="#201D32"/>
<stop offset="0.515625" stop-color="#100B2D"/>
<stop offset="1" stop-color="#201D32"/>
</linearGradient>
<linearGradient id="paint7_linear_1_370" x1="8.58384" y1="28.5948" x2="9.13846" y2="33.7811" gradientUnits="userSpaceOnUse">
<stop offset="0.095796" stop-color="#201D32"/>
<stop offset="0.515625" stop-color="#100B2D"/>
<stop offset="1" stop-color="#201D32"/>
</linearGradient>
<linearGradient id="paint8_linear_1_370" x1="5.8104" y1="21.5314" x2="6.28547" y2="26.7338" gradientUnits="userSpaceOnUse">
<stop offset="0.095796" stop-color="#201D32"/>
<stop offset="0.515625" stop-color="#100B2D"/>
<stop offset="1" stop-color="#201D32"/>
</linearGradient>
<linearGradient id="paint9_linear_1_370" x1="19.4745" y1="21.5314" x2="21.8504" y2="25.2655" gradientUnits="userSpaceOnUse">
<stop offset="0.095796" stop-color="#201D32"/>
<stop offset="0.515625" stop-color="#100B2D"/>
<stop offset="1" stop-color="#201D32"/>
</linearGradient>
<linearGradient id="paint10_linear_1_370" x1="27.629" y1="7.591" x2="30.9528" y2="22.3317" gradientUnits="userSpaceOnUse">
<stop offset="0.095796" stop-color="#201D32"/>
<stop offset="0.515625" stop-color="#100B2D"/>
<stop offset="1" stop-color="#201D32"/>
</linearGradient>
<clipPath id="clip0_1_370">
<rect width="90.271" height="90.271" fill="white" transform="translate(-0.000144958 0.58905)"/>
</clipPath>
</defs>
</svg>
