<svg width="86" height="81" viewBox="0 0 86 81" fill="none" xmlns="http://www.w3.org/2000/svg">
<path d="M16.545 20.2776C19.6077 20.2776 22.089 17.976 22.089 15.1394C22.089 12.2996 19.6077 10 16.545 10C13.4812 10 11 12.2996 11 15.1394C10.9999 17.9761 13.4812 20.2776 16.545 20.2776Z" fill="url(#paint0_linear_1_360)" fill-opacity="0.95"/>
<path d="M41.4637 32.9924V33C41.4762 33 41.4875 32.9962 41.5 32.9962C41.5125 32.9962 41.5239 33 41.5363 33V32.9924C43.4559 32.9537 45 31.4084 45 29.501C45 27.5908 43.4557 26.0464 41.5363 26.0076V26C41.5239 26 41.5125 26.0038 41.5 26.0038C41.4875 26.0038 41.4762 26 41.4637 26V26.0076C39.5441 26.0464 38 27.5908 38 29.501C38 31.4083 39.5441 32.9536 41.4637 32.9924Z" fill="url(#paint1_linear_1_360)" fill-opacity="0.95"/>
<path d="M65.4994 20C68.5386 20 71 17.7605 71 15.0005C71 12.2375 68.5386 10 65.4994 10C62.4613 10 60 12.2375 60 15.0005C60 17.7607 62.4614 20 65.4994 20Z" fill="url(#paint2_linear_1_360)" fill-opacity="0.95"/>
<path d="M75 44.0127V27.0935C75 24.6536 72.1002 22 69.4348 22H68.6646L64.8372 25.5024L61.09 22.0734C58.7208 22.3905 56.6323 23.7342 55.5228 25.7216L51.0744 37.6281C50.9211 37.9009 50.6363 38.0948 50.3051 38.1484C49.974 38.2021 49.6347 38.1107 49.3868 37.9009L46.6197 35.7084C45.792 35.0073 44.706 34.6178 43.578 34.6178H41H38.4221C37.294 34.6178 36.2081 35.0074 35.3803 35.7084L32.6132 37.9009C32.3653 38.1107 32.0259 38.2021 31.6949 38.1484C31.3637 38.0947 31.0789 37.9009 30.9256 37.6281L26.4772 25.7216C25.2022 23.4379 22.6355 22 19.8323 22H17.3881H12.5652C9.89983 22 7 24.6536 7 27.0935V44.0126C7 45.2322 8.07977 46.2211 9.41254 46.2211C10.0685 46.2211 9.41254 46.2211 11.0969 46.2211L12.0141 60.6502C12.0141 61.9479 13.1648 62.9999 14.5828 62.9999C15.1812 62.9999 16.2847 62.9999 17.3881 62.9999C18.4913 62.9999 19.5947 62.9999 20.1932 62.9999C21.6112 62.9999 22.7619 61.9479 22.7619 60.6502L23.6791 46.2211L23.6677 35.9192C23.6677 35.7564 23.7891 35.6162 23.9628 35.5767C24.1367 35.539 24.3145 35.6142 24.3958 35.7592L27.925 43.7078C28.3507 44.4681 29.1405 45.0026 30.0598 45.1523C30.979 45.3018 31.922 45.0497 32.608 44.47L35.9849 42.1938C36.098 42.0988 36.2615 42.0743 36.4014 42.1279C36.5423 42.1853 36.6327 42.3124 36.6327 42.4516L36.6452 51.3854L37.2797 61.374C37.2797 62.2718 38.0765 63 39.0587 63C39.472 63 40.2361 63 41.0001 63C41.7642 63 42.5283 63 42.9416 63C43.9236 63 44.7205 62.2718 44.7205 61.374L45.3549 51.3854L45.3673 42.4516C45.3673 42.3123 45.4577 42.1852 45.5986 42.1279C45.7385 42.0742 45.902 42.0988 46.0151 42.1938L49.392 44.47C50.0779 45.0497 51.0208 45.3018 51.9403 45.1523C52.8595 45.0027 53.6493 44.4682 54.075 43.7078L57.6041 35.7592C57.6854 35.6144 57.8632 35.539 58.0371 35.5767C58.2108 35.6162 58.3322 35.7564 58.3322 35.9192L58.328 39.8486L54.6251 50.3794C54.5376 50.6287 54.585 50.9015 54.7535 51.1134C54.9222 51.3251 55.1915 51.4503 55.4775 51.4503H58.653L59.2381 60.6504C59.2381 61.948 60.3888 63 61.8068 63C62.4053 63 63.5087 63 64.6119 63C65.7153 63 66.8186 63 67.4172 63C68.8352 63 69.9858 61.948 69.9858 60.6504L70.571 51.4503H74.0796C74.3654 51.4503 74.6349 51.3251 74.8036 51.1134C74.9722 50.9015 75.0195 50.6287 74.9321 50.3794L73.4195 46.0782C74.3409 45.7667 75 44.9631 75 44.0127ZM18.3454 24.4956V33.5612H15.4189V24.4956H18.3454Z" fill="url(#paint3_linear_1_360)" fill-opacity="0.95"/>
<defs>
<linearGradient id="paint0_linear_1_360" x1="11" y1="11.1556" x2="13.2728" y2="22.0308" gradientUnits="userSpaceOnUse">
<stop offset="0.095796" stop-color="#201D32"/>
<stop offset="0.515625" stop-color="#100B2D"/>
<stop offset="1" stop-color="#201D32"/>
</linearGradient>
<linearGradient id="paint1_linear_1_360" x1="38" y1="26.7871" x2="39.6588" y2="34.1435" gradientUnits="userSpaceOnUse">
<stop offset="0.095796" stop-color="#201D32"/>
<stop offset="0.515625" stop-color="#100B2D"/>
<stop offset="1" stop-color="#201D32"/>
</linearGradient>
<linearGradient id="paint2_linear_1_360" x1="60" y1="11.1244" x2="62.1725" y2="21.7226" gradientUnits="userSpaceOnUse">
<stop offset="0.095796" stop-color="#201D32"/>
<stop offset="0.515625" stop-color="#100B2D"/>
<stop offset="1" stop-color="#201D32"/>
</linearGradient>
<linearGradient id="paint3_linear_1_360" x1="7" y1="26.61" x2="13.0441" y2="71.0668" gradientUnits="userSpaceOnUse">
<stop offset="0.095796" stop-color="#201D32"/>
<stop offset="0.515625" stop-color="#100B2D"/>
<stop offset="1" stop-color="#201D32"/>
</linearGradient>
</defs>
</svg>
