<svg width="79" height="80" viewBox="0 0 79 80" fill="none" xmlns="http://www.w3.org/2000/svg">
<path d="M13.0963 69.3373C11.2957 69.3373 9.75489 68.6968 8.47377 67.4157C7.19266 66.1346 6.55101 64.5926 6.54883 62.7899V26.779C6.54883 24.9785 7.19048 23.4376 8.47377 22.1565C9.75707 20.8754 11.2979 20.2338 13.0963 20.2316H26.1911V13.6842C26.1911 11.8836 26.8328 10.3428 28.1161 9.06166C29.3994 7.78055 30.9402 7.1389 32.7386 7.13672H45.8334C47.634 7.13672 49.1759 7.77837 50.4592 9.06166C51.7425 10.345 52.383 11.8858 52.3809 13.6842V20.2316H65.4757C67.2763 20.2316 68.8182 20.8732 70.1015 22.1565C71.3848 23.4398 72.0253 24.9807 72.0232 26.779V62.7899C72.0232 64.5905 71.3826 66.1324 70.1015 67.4157C68.8204 68.699 67.2785 69.3395 65.4757 69.3373H13.0963ZM32.7386 20.2316H45.8334V13.6842H32.7386V20.2316ZM65.4757 49.695H49.1071V56.2425H29.4648V49.695H13.0963V62.7899H65.4757V49.695ZM36.0123 49.695H42.5597V43.1476H36.0123V49.695ZM13.0963 43.1476H29.4648V36.6002H49.1071V43.1476H65.4757V26.779H13.0963V43.1476Z" fill="url(#paint0_linear_1_343)" fill-opacity="0.95"/>
<defs>
<linearGradient id="paint0_linear_1_343" x1="6.54883" y1="14.1306" x2="20.6178" y2="79.8083" gradientUnits="userSpaceOnUse">
<stop offset="0.095796" stop-color="#201D32"/>
<stop offset="0.515625" stop-color="#100B2D"/>
<stop offset="1" stop-color="#201D32"/>
</linearGradient>
</defs>
</svg>
