<svg width="94" height="94" viewBox="0 0 94 94" fill="none" xmlns="http://www.w3.org/2000/svg">
<path d="M55.7566 72.7811C55.754 73.401 55.5066 73.9948 55.0683 74.4331C54.63 74.8715 54.0362 75.1189 53.4163 75.1215H16.9165C16.2966 75.1189 15.7029 74.8715 15.2645 74.4331C14.8262 73.9948 14.5788 73.401 14.5762 72.7811V68.5291C14.5788 67.9092 14.8262 67.3154 15.2645 66.877C15.7029 66.4387 16.2966 66.1913 16.9165 66.1887H53.4163C54.0366 66.19 54.6311 66.437 55.0697 66.8756C55.5083 67.3142 55.7553 67.9088 55.7566 68.5291V72.7811ZM42.1234 60.0348C41.7644 60.035 41.4089 59.9642 41.0774 59.8263C40.7459 59.6885 40.445 59.4864 40.192 59.2317L24.4402 43.4848C23.9279 42.9725 23.6402 42.2778 23.6402 41.5534C23.6402 40.8289 23.9279 40.1342 24.4402 39.6219C24.9524 39.1097 25.6472 38.8219 26.3716 38.8219C27.096 38.8219 27.7908 39.1097 28.303 39.6219L44.0499 55.3787C44.4322 55.7605 44.6926 56.2471 44.7981 56.7769C44.9036 57.3067 44.8496 57.856 44.6428 58.355C44.436 58.8541 44.0857 59.2806 43.6363 59.5805C43.187 59.8804 42.6587 60.0402 42.1185 60.0397L42.1234 60.0348ZM78.2389 64.9224L56.343 43.0216L61.6888 37.6807L46.0552 22.0471L31.4218 36.6805L47.0554 52.3092L52.4851 46.8844L74.3859 68.7853C74.6395 69.0389 74.9406 69.2401 75.272 69.3774C75.6034 69.5146 75.9586 69.5853 76.3173 69.5853C76.676 69.5853 77.0312 69.5146 77.3626 69.3774C77.694 69.2401 77.9951 69.0389 78.2487 68.7853C78.5023 68.5316 78.7036 68.2305 78.8408 67.8991C78.9781 67.5677 79.0487 67.2126 79.0487 66.8539C79.0487 66.4952 78.9781 66.14 78.8408 65.8086C78.7036 65.4772 78.5023 65.1761 78.2487 64.9224H78.2389ZM66.7588 35.3945C66.401 35.3947 66.0466 35.3244 65.716 35.1874C65.3854 35.0504 65.0851 34.8496 64.8323 34.5963L49.0755 18.8445C48.8219 18.5908 48.6207 18.2897 48.4834 17.9583C48.3462 17.6269 48.2755 17.2718 48.2755 16.9131C48.2755 16.5544 48.3462 16.1992 48.4834 15.8678C48.6207 15.5364 48.8219 15.2353 49.0755 14.9817C49.3292 14.728 49.6303 14.5268 49.9617 14.3896C50.2931 14.2523 50.6482 14.1816 51.0069 14.1816C51.3656 14.1816 51.7208 14.2523 52.0522 14.3896C52.3836 14.5268 52.6847 14.728 52.9384 14.9817L68.6853 30.7335C69.0672 31.115 69.3275 31.6011 69.4332 32.1305C69.5389 32.6599 69.4853 33.2087 69.2791 33.7076C69.0729 34.2064 68.7234 34.633 68.2748 34.9333C67.8262 35.2335 67.2986 35.394 66.7588 35.3945Z" fill="url(#paint0_linear_1_422)" fill-opacity="0.95"/>
<defs>
<linearGradient id="paint0_linear_1_422" x1="14.5762" y1="21.0337" x2="28.2965" y2="85.4086" gradientUnits="userSpaceOnUse">
<stop offset="0.095796" stop-color="#201D32"/>
<stop offset="0.515625" stop-color="#100B2D"/>
<stop offset="1" stop-color="#201D32"/>
</linearGradient>
</defs>
</svg>
