<svg width="116" height="116" viewBox="0 0 116 116" fill="none" xmlns="http://www.w3.org/2000/svg">
<path d="M57.7861 44.5356C64.6285 44.5356 70.1462 39.0174 70.1462 32.1755C70.1462 25.3336 64.6722 19.8154 57.7861 19.8154C50.9437 19.8154 45.426 25.3336 45.426 32.1755C45.4697 39.062 50.9879 44.5356 57.7861 44.5356ZM29.0928 80.3362H6.88866C-0.306509 80.3362 -0.703914 69.3445 7.02113 69.3445H26.2673L37.3031 53.0996C40.5698 48.6412 44.278 46.5221 49.5307 46.5221H65.9964C71.2496 46.5221 74.9574 48.4646 78.224 53.0996L89.304 69.3445H108.683C116.452 69.3445 115.967 80.3362 108.948 80.3362H86.7439C84.9781 80.3362 82.859 79.718 81.6231 77.8202L73.1474 65.725L73.1033 96.0075H42.733L42.6888 65.725L34.2131 77.8202C32.9772 79.6738 30.8586 80.3362 29.0928 80.3362Z" fill="url(#paint0_linear_1_353)" fill-opacity="0.95"/>
<path d="M10.4394 38.0613C7.10242 41.3983 7.10468 46.8272 10.4394 50.1619C11.7717 51.4942 13.4402 52.2949 15.1735 52.5616V58.7385L11.0485 58.7367V62.485L15.174 62.4832V66.5411H18.9182V62.4832H22.8904V58.739H18.9182L18.92 52.3161C20.2442 51.925 21.495 51.2077 22.5399 50.1628C25.8746 46.8281 25.8746 41.401 22.5376 38.0641C19.203 34.7289 13.774 34.7267 10.4394 38.0613ZM19.8914 47.5139C18.0153 49.3901 14.9635 49.3901 13.0874 47.5139C11.2112 45.6377 11.2112 42.586 13.0874 40.7098C14.9617 38.8354 18.013 38.8359 19.8892 40.7121C21.7654 42.5882 21.7658 45.6395 19.8914 47.5139Z" fill="url(#paint1_linear_1_353)" fill-opacity="0.95"/>
<path d="M102.286 40.6055V44.0469H107.468L100.519 50.9961C99.1425 50.0008 97.456 49.4128 95.6321 49.4128C91.0147 49.4128 87.2578 53.1701 87.2578 57.7871C87.2578 62.4046 91.0147 66.1614 95.6321 66.1614C100.25 66.1614 104.006 62.4046 104.006 57.7871C104.006 56.2353 103.582 54.7845 102.845 53.5396L109.949 46.4327V51.7125H113.391V40.6055H102.286ZM95.6321 62.7204C92.9134 62.7204 90.6993 60.5063 90.6993 57.7876C90.6993 55.0688 92.9134 52.8547 95.6321 52.8547C98.3509 52.8547 100.565 55.0688 100.565 57.7876C100.565 60.5063 98.3509 62.7204 95.6321 62.7204Z" fill="url(#paint2_linear_1_353)" fill-opacity="0.95"/>
<defs>
<linearGradient id="paint0_linear_1_353" x1="1.35938" y1="28.3825" x2="13.8631" y2="110.624" gradientUnits="userSpaceOnUse">
<stop offset="0.095796" stop-color="#201D32"/>
<stop offset="0.515625" stop-color="#100B2D"/>
<stop offset="1" stop-color="#201D32"/>
</linearGradient>
<linearGradient id="paint1_linear_1_353" x1="7.9375" y1="39.0449" x2="19.9132" y2="68.366" gradientUnits="userSpaceOnUse">
<stop offset="0.095796" stop-color="#201D32"/>
<stop offset="0.515625" stop-color="#100B2D"/>
<stop offset="1" stop-color="#201D32"/>
</linearGradient>
<linearGradient id="paint2_linear_1_353" x1="87.2578" y1="43.479" x2="93.1927" y2="70.3931" gradientUnits="userSpaceOnUse">
<stop offset="0.095796" stop-color="#201D32"/>
<stop offset="0.515625" stop-color="#100B2D"/>
<stop offset="1" stop-color="#201D32"/>
</linearGradient>
</defs>
</svg>
