<svg width="97" height="98" viewBox="0 0 97 98" fill="none" xmlns="http://www.w3.org/2000/svg">
<path fill-rule="evenodd" clip-rule="evenodd" d="M16.1638 28.3853C16.1638 26.1542 17.9725 24.3454 20.2037 24.3454H76.7624C78.9936 24.3454 80.8023 26.1542 80.8023 28.3853V32.4252H80.6463H80.4932H80.3405H80.1878H80.0355H79.8832H79.7309H79.579H79.4271H79.2752H79.1237H78.9722H78.8211H78.67H78.5193H78.3682H78.2179H78.0673H77.917H77.7671H77.6168H77.4669H77.3175H77.168H77.0185H76.869H76.72H76.5713H76.4222H76.2735H76.1253H75.977H75.8288H75.6805H75.5326H75.3848H75.2373H75.0894H74.9424H74.7949H74.6479H74.5008H74.3542H74.2075H74.0609H73.9142H73.768H73.6217H73.4759H73.3301H73.1842H73.0384H72.893H72.7475H72.6025H72.457H72.312H72.1674H72.0228H71.8777H71.7335H71.5889H71.4446H71.3004H71.1566H71.0128H70.869H70.7251H70.5817H70.4383H70.2949H70.1515H70.0085H69.8654H69.7228H69.5798H69.4372H69.2946H69.1524H69.0102H68.8676H68.7258H68.5836H68.4418H68.3H68.1582H68.0168H67.8754H67.734H67.5926H67.4516H67.3106H67.1696H67.0286H66.8876H66.747H66.6064H66.4663H66.3257H66.1855H66.0453H65.9051H65.7649H65.6252H65.4854H65.3456H65.2058H65.0664H64.9271H64.7877H64.6483H64.5089H64.37H64.231H64.092H63.953H63.8145H63.6755H63.5369H63.3984H63.2598H63.1216H62.9831H62.8449H62.7067H62.5686H62.4308H62.2926H62.1549H62.0171H61.8794H61.742H61.6042H61.4669H61.3291H61.1918H61.0548H60.9175H60.7801H60.6432H60.5062H60.3692H60.2323H60.0953H59.9588H59.8218H59.6853H59.5487H59.4122H59.2756H59.1391H59.0029H58.8664H58.7303H58.5941H58.458H58.3218H58.1857H58.0499H57.9138H57.778H57.6423H57.5066H57.3708H57.2351H57.0993H56.9636H56.8283H56.6929H56.5572H56.4219H56.2865H56.1512H56.0158H55.8805H55.7456H55.6102H55.4753H55.34H55.205H55.0701H54.9348H54.7998H54.6649H54.5304H54.3954H54.2605H54.1256H53.991H53.8561H53.7216H53.5871H53.4521H53.3176H53.1831H53.0485H52.914H52.7795H52.6449H52.5104H52.3759H52.2414H52.1072H51.9727H51.8382H51.7041H51.5695H51.4354H51.3009H51.1667H51.0326H50.8981H50.764H50.6298H50.4953H50.3612H50.2271H50.0929H49.9588H49.8247H49.6906H49.556H49.4219H49.2878H49.1537H49.0195H48.8854H48.7513H48.6172H48.483H48.3489H48.2148H48.0807H47.9465H47.8124H47.6783H47.5442H47.41H47.2755H47.1414H47.0073H46.8731H46.739H46.6049H46.4708H46.3362H46.2021H46.068H45.9335H45.7993H45.6652H45.5307H45.3965H45.262H45.1279H44.9934H44.8588H44.7247H44.5902H44.4557H44.3211H44.1866H44.0521H43.9175H43.783H43.6485H43.514H43.379H43.2445H43.11H42.975H42.8405H42.7056H42.5706H42.4357H42.3012H42.1662H42.0313H41.896H41.761H41.6261H41.4908H41.3558H41.2205H41.0856H40.9502H40.8149H40.6796H40.5442H40.4089H40.2733H40.1378H40.0023H39.8667H39.731H39.5954H39.4596H39.3238H39.188H39.0521H38.9162H38.7802H38.6442H38.5081H38.3719H38.2357H38.0995H37.9632H37.8268H37.6904H37.5539H37.4174H37.2808H37.1441H37.0074H36.8707H36.7338H36.5969H36.4599H36.3229H36.1858H36.0487H35.9114H35.7741H35.6367H35.4993H35.3618H35.2242H35.0866H34.9489H34.8111H34.6732H34.5353H34.3973H34.2592H34.1211H33.9828H33.8445H33.7061H33.5677H33.4291H33.2905H33.1518H33.013H32.8741H32.7352H32.5961H32.457H32.3178H32.1785H32.0391H31.8996H31.7601H31.6204H31.4807H31.3409H31.201H31.0609H30.9208H30.7807H30.6404H30.5H30.3595H30.2189H30.0782H29.9375H29.7966H29.6557H29.5146H29.3734H29.2322H29.0908H28.9493H28.8077H28.666H28.5242H28.3824H28.2404H28.0983H27.9561H27.8137H27.6713H27.5288H27.3861H27.2434H27.1005H26.9575H26.8144H26.6712H26.5279H26.3844H26.2409H26.0972H25.9534H25.8095H25.6655H25.5213H25.377H25.2327H25.0881H24.9435H24.7987H24.6539H24.5089H24.3637H24.2184H24.0731H23.9276H23.7819H23.6361H23.4902H23.3442H23.198H23.0517H22.9053H22.7587H22.612H22.4652H22.3182H22.1711H22.0238H21.8765H21.729H21.5813H21.4335H21.2855H21.1374H20.9892H20.8409H20.6924H20.5437H20.3949H20.246H20.0968H19.9476H19.7982H19.6487H19.499H19.3491H19.1991H19.049H18.8987H18.7483H18.5977H18.4469H18.296H18.1449H17.9937H17.8423H17.6908H17.5391H17.3872H17.2352H17.083H16.9307H16.7782H16.6255H16.4727H16.3197H16.1665L16.1638 28.3853ZM16.1638 72.8243V44.545H80.8023V72.8243C80.8023 75.0555 78.9936 76.8642 76.7624 76.8642H20.2037C17.9725 76.8642 16.1638 75.0555 16.1638 72.8243ZM20.2037 16.2656C13.5102 16.2656 8.08398 21.6918 8.08398 28.3853V36.4652V40.5051V72.8243C8.08398 79.518 13.5102 84.944 20.2037 84.944H76.7624C83.4561 84.944 88.8821 79.518 88.8821 72.8243V40.5051V36.4652V28.3853C88.8821 21.6918 83.4561 16.2656 76.7624 16.2656H20.2037ZM56.5628 56.6647C54.3316 56.6647 52.5229 58.4733 52.5229 60.7046C52.5229 62.9358 54.3316 64.7445 56.5628 64.7445H72.7225C74.9537 64.7445 76.7624 62.9358 76.7624 60.7046C76.7624 58.4733 74.9537 56.6647 72.7225 56.6647H56.5628Z" fill="url(#paint0_linear_1_338)" fill-opacity="0.95"/>
<defs>
<linearGradient id="paint0_linear_1_338" x1="8.08399" y1="23.9878" x2="22.1057" y2="97.1456" gradientUnits="userSpaceOnUse">
<stop offset="0.095796" stop-color="#201D32"/>
<stop offset="0.515625" stop-color="#100B2D"/>
<stop offset="1" stop-color="#201D32"/>
</linearGradient>
</defs>
</svg>
