<svg width="30" height="30" viewBox="0 0 30 30" fill="none" xmlns="http://www.w3.org/2000/svg">
<circle cx="15" cy="15" r="15" fill="url(#paint0_linear_1_137)"/>
<path d="M15.0022 10.9573C12.7663 10.9573 10.9628 12.7608 10.9628 14.9968C10.9628 17.2327 12.7663 19.0362 15.0022 19.0362C17.2382 19.0362 19.0417 17.2327 19.0417 14.9968C19.0417 12.7608 17.2382 10.9573 15.0022 10.9573ZM15.0022 17.6229C13.5573 17.6229 12.3761 16.4452 12.3761 14.9968C12.3761 13.5483 13.5538 12.3706 15.0022 12.3706C16.4507 12.3706 17.6284 13.5483 17.6284 14.9968C17.6284 16.4452 16.4472 17.6229 15.0022 17.6229ZM20.1491 10.7921C20.1491 11.3159 19.7272 11.7343 19.2069 11.7343C18.6831 11.7343 18.2647 11.3124 18.2647 10.7921C18.2647 10.2718 18.6866 9.8499 19.2069 9.8499C19.7272 9.8499 20.1491 10.2718 20.1491 10.7921ZM22.8245 11.7483C22.7647 10.4862 22.4765 9.36826 21.5519 8.44717C20.6308 7.52607 19.5128 7.23779 18.2507 7.17451C16.9499 7.10068 13.0511 7.10068 11.7503 7.17451C10.4917 7.23428 9.37373 7.52256 8.44912 8.44365C7.52451 9.36475 7.23975 10.4827 7.17646 11.7448C7.10264 13.0456 7.10264 16.9444 7.17646 18.2452C7.23623 19.5073 7.52451 20.6253 8.44912 21.5464C9.37373 22.4675 10.4882 22.7558 11.7503 22.819C13.0511 22.8929 16.9499 22.8929 18.2507 22.819C19.5128 22.7593 20.6308 22.471 21.5519 21.5464C22.4729 20.6253 22.7612 19.5073 22.8245 18.2452C22.8983 16.9444 22.8983 13.0491 22.8245 11.7483ZM21.144 19.6409C20.8698 20.33 20.339 20.8608 19.6464 21.1386C18.6093 21.5499 16.1483 21.455 15.0022 21.455C13.8562 21.455 11.3917 21.5464 10.3581 21.1386C9.66904 20.8644 9.13818 20.3335 8.86045 19.6409C8.44912 18.6038 8.54404 16.1429 8.54404 14.9968C8.54404 13.8507 8.45264 11.3862 8.86045 10.3526C9.13467 9.66357 9.66553 9.13271 10.3581 8.85498C11.3952 8.44365 13.8562 8.53857 15.0022 8.53857C16.1483 8.53857 18.6128 8.44717 19.6464 8.85498C20.3354 9.1292 20.8663 9.66006 21.144 10.3526C21.5554 11.3897 21.4604 13.8507 21.4604 14.9968C21.4604 16.1429 21.5554 18.6073 21.144 19.6409Z" fill="#F9F9F9"/>
<defs>
<linearGradient id="paint0_linear_1_137" x1="5.01438" y1="-1.50477e-07" x2="9.6902" y2="17.0309" gradientUnits="userSpaceOnUse">
<stop stop-color="#F0642C"/>
<stop offset="1" stop-color="#D7450E"/>
</linearGradient>
</defs>
</svg>
