<svg width="19" height="19" viewBox="0 0 19 19" fill="none" xmlns="http://www.w3.org/2000/svg">
<path fill-rule="evenodd" clip-rule="evenodd" d="M13.7394 17.6002C12.1401 17.1995 8.86618 16.0699 5.89811 13.1019C2.93007 10.1338 1.80048 6.85989 1.39979 5.26065C1.16953 4.34159 1.58418 3.45473 2.28727 2.95252L4.13047 1.63595C5.20894 0.865615 6.70923 1.12701 7.46362 2.2167L8.62401 3.89285C9.11659 4.60436 8.9467 5.57953 8.24251 6.08252L7.31724 6.74343C7.45728 7.27908 7.89282 8.3791 9.25687 9.74314C10.6209 11.1072 11.7209 11.5427 12.2566 11.6827L12.9175 10.7574C13.4205 10.0533 14.3957 9.88335 15.1071 10.3759L16.7833 11.5363C17.873 12.2908 18.1344 13.791 17.364 14.8695L16.0475 16.7127C15.5452 17.4158 14.6584 17.8305 13.7394 17.6002ZM7.0177 11.9823C9.71683 14.6814 12.6954 15.7064 14.1241 16.0644C14.333 16.1166 14.5854 16.0355 14.759 15.7924L16.0757 13.9492C16.3324 13.5898 16.2453 13.0897 15.882 12.8382L14.2059 11.6777L13.4966 12.6707C13.2068 13.0765 12.6708 13.3948 12.0466 13.2601C11.2676 13.0921 9.82758 12.553 8.1373 10.8627C6.44701 9.17243 5.90796 7.73239 5.73987 6.95339C5.60521 6.32924 5.92349 5.79321 6.32928 5.50336L7.32223 4.7941L6.16181 3.11795C5.91035 2.75471 5.41025 2.66758 5.05076 2.92436L3.20756 4.24093C2.96449 4.41455 2.88334 4.66702 2.93566 4.87584C3.29363 6.3046 4.31861 9.28318 7.0177 11.9823Z" fill="url(#paint0_linear_1_113)"/>
<defs>
<linearGradient id="paint0_linear_1_113" x1="4.08895" y1="1.19336" x2="6.65608" y2="10.5437" gradientUnits="userSpaceOnUse">
<stop stop-color="#F0642C"/>
<stop offset="1" stop-color="#D7450E"/>
</linearGradient>
</defs>
</svg>
