<svg width="21" height="20" viewBox="0 0 21 20" fill="none" xmlns="http://www.w3.org/2000/svg">
<path d="M14.7244 2.14564C15.8051 2.14875 16.8406 2.56352 17.6047 3.29938C18.3689 4.03523 18.7996 5.03236 18.8028 6.07301V13.9269C18.7996 14.9675 18.3689 15.9647 17.6047 16.7005C16.8406 17.4364 15.8051 17.8512 14.7244 17.8543H6.56844C5.48777 17.8512 4.45228 17.4364 3.68813 16.7005C2.92397 15.9647 2.49325 14.9675 2.49002 13.9269V6.07301C2.49325 5.03236 2.92397 4.03523 3.68813 3.29938C4.45228 2.56352 5.48777 2.14875 6.56844 2.14564H14.7244ZM14.7244 0.574951H6.56844C3.42814 0.574951 0.858917 3.04901 0.858917 6.07301V13.9269C0.858917 16.9509 3.42814 19.425 6.56844 19.425H14.7244C17.8647 19.425 20.4339 16.9509 20.4339 13.9269V6.07301C20.4339 3.04901 17.8647 0.574951 14.7244 0.574951Z" fill="white"/>
<path d="M15.9479 6.07183C15.7059 6.07183 15.4694 6.00273 15.2682 5.87328C15.067 5.74382 14.9102 5.55982 14.8176 5.34455C14.725 5.12928 14.7007 4.89239 14.748 4.66386C14.7952 4.43533 14.9117 4.22541 15.0828 4.06064C15.2539 3.89588 15.4719 3.78367 15.7092 3.73821C15.9465 3.69276 16.1925 3.71609 16.4161 3.80526C16.6396 3.89443 16.8307 4.04543 16.9651 4.23917C17.0996 4.43291 17.1713 4.66069 17.1713 4.8937C17.1717 5.04851 17.1403 5.20186 17.0789 5.34494C17.0175 5.48803 16.9274 5.61804 16.8138 5.7275C16.7001 5.83697 16.5651 5.92374 16.4165 5.98283C16.2679 6.04191 16.1086 6.07216 15.9479 6.07183ZM10.6465 6.85696C11.2918 6.85696 11.9226 7.04123 12.4591 7.38645C12.9956 7.73168 13.4138 8.22236 13.6608 8.79645C13.9077 9.37054 13.9723 10.0023 13.8464 10.6117C13.7205 11.2212 13.4098 11.781 12.9535 12.2204C12.4972 12.6598 11.9159 12.959 11.283 13.0802C10.6501 13.2014 9.99408 13.1392 9.39791 12.9014C8.80174 12.6636 8.29218 12.2609 7.93368 11.7443C7.57517 11.2276 7.38382 10.6202 7.38382 9.99877C7.38475 9.16578 7.72879 8.36717 8.34045 7.77816C8.95211 7.18915 9.78144 6.85785 10.6465 6.85696ZM10.6465 5.28627C9.67857 5.28627 8.73242 5.56265 7.92765 6.08047C7.12287 6.59829 6.49563 7.33428 6.12523 8.19537C5.75484 9.05647 5.65792 10.004 5.84675 10.9181C6.03558 11.8323 6.50166 12.672 7.18606 13.331C7.87047 13.9901 8.74245 14.4389 9.69174 14.6207C10.641 14.8026 11.625 14.7092 12.5192 14.3526C13.4134 13.9959 14.1777 13.3919 14.7155 12.6169C15.2532 11.8419 15.5402 10.9308 15.5402 9.99877C15.5402 8.74894 15.0246 7.55029 14.1069 6.66653C13.1891 5.78276 11.9444 5.28627 10.6465 5.28627Z" fill="white"/>
</svg>
