<svg width="18" height="20" viewBox="0 0 18 20" fill="none" xmlns="http://www.w3.org/2000/svg">
<path fill-rule="evenodd" clip-rule="evenodd" d="M18.0089 19.5H14.4089V12.8509C14.4089 11.0269 13.6466 10.0093 12.2795 10.0093C10.7918 10.0093 9.90891 11.0697 9.90891 12.8509V19.5H6.30891V7.15H9.90891V8.53882C9.90891 8.53882 11.0384 6.44678 13.5836 6.44678C16.1297 6.44678 18.0089 8.0868 18.0089 11.4802V19.5ZM2.20671 5.17485C0.992612 5.17485 0.00891113 4.12801 0.00891113 2.83696C0.00891113 1.54686 0.992612 0.5 2.20671 0.5C3.41991 0.5 4.40361 1.54686 4.40361 2.83696C4.40451 4.12801 3.41991 5.17485 2.20671 5.17485ZM0.00891113 19.5H4.50891V7.15H0.00891113V19.5Z" fill="white"/>
</svg>
