<svg width="17" height="17" viewBox="0 0 17 17" fill="none" xmlns="http://www.w3.org/2000/svg">
<g clip-path="url(#clip0_1_544)">
<path d="M8.49998 5.66665C6.93456 5.66665 5.66665 6.93456 5.66665 8.49998C5.66665 10.0654 6.93456 11.3333 8.49998 11.3333C10.0654 11.3333 11.3333 10.0654 11.3333 8.49998C11.3333 6.93456 10.0654 5.66665 8.49998 5.66665ZM14.8325 7.79165C14.5066 4.8379 12.1621 2.49331 9.20831 2.16748V1.41665C9.20831 1.02706 8.88956 0.708313 8.49998 0.708313C8.1104 0.708313 7.79165 1.02706 7.79165 1.41665V2.16748C4.8379 2.49331 2.49331 4.8379 2.16748 7.79165H1.41665C1.02706 7.79165 0.708313 8.1104 0.708313 8.49998C0.708313 8.88956 1.02706 9.20831 1.41665 9.20831H2.16748C2.49331 12.1621 4.8379 14.5066 7.79165 14.8325V15.5833C7.79165 15.9729 8.1104 16.2916 8.49998 16.2916C8.88956 16.2916 9.20831 15.9729 9.20831 15.5833V14.8325C12.1621 14.5066 14.5066 12.1621 14.8325 9.20831H15.5833C15.9729 9.20831 16.2916 8.88956 16.2916 8.49998C16.2916 8.1104 15.9729 7.79165 15.5833 7.79165H14.8325ZM8.49998 13.4583C5.75873 13.4583 3.54165 11.2412 3.54165 8.49998C3.54165 5.75873 5.75873 3.54165 8.49998 3.54165C11.2412 3.54165 13.4583 5.75873 13.4583 8.49998C13.4583 11.2412 11.2412 13.4583 8.49998 13.4583Z" fill="url(#paint0_linear_1_544)" fill-opacity="0.95"/>
</g>
<defs>
<linearGradient id="paint0_linear_1_544" x1="0.708313" y1="2.46051" x2="4.40107" y2="18.8373" gradientUnits="userSpaceOnUse">
<stop offset="0.095796" stop-color="#201D32"/>
<stop offset="0.515625" stop-color="#100B2D"/>
<stop offset="1" stop-color="#201D32"/>
</linearGradient>
<clipPath id="clip0_1_544">
<rect width="17" height="17" fill="white"/>
</clipPath>
</defs>
</svg>
