<svg width="29" height="24" viewBox="0 0 29 24" fill="none" xmlns="http://www.w3.org/2000/svg">
<path d="M13.3665 3.31604L8.38499 12.5967L5.24593 13.4839C5.60988 12.8015 6.01932 12.2555 6.47426 11.8461C6.92919 11.3912 7.45237 11.1637 8.04379 11.1637C9.3631 11.1637 10.5459 11.7096 11.5923 12.8015C12.6841 13.8478 13.2301 15.2126 13.2301 16.8959C13.2301 18.6701 12.6159 20.1942 11.3876 21.468C10.2047 22.7418 8.72619 23.3787 6.95194 23.3787C5.26868 23.3787 3.79014 22.7645 2.51632 21.5362C1.28799 20.2624 0.673828 18.7156 0.673828 16.8959C0.673828 16.168 0.810309 15.3263 1.08327 14.371C1.40173 13.4156 1.97039 12.1645 2.78928 10.6178L8.24851 0.518188L13.3665 3.31604ZM28.7206 3.31604L23.7391 12.5967L20.6682 13.4839C20.9867 12.8015 21.3734 12.2555 21.8283 11.8461C22.3288 11.3912 22.8519 11.1637 23.3979 11.1637C24.7172 11.1637 25.9228 11.7096 27.0146 12.8015C28.1064 13.8478 28.6524 15.2126 28.6524 16.8959C28.6524 18.6701 28.0382 20.1942 26.8099 21.468C25.627 22.7418 24.1485 23.3787 22.3743 23.3787C20.691 23.3787 19.2125 22.7645 17.9386 21.5362C16.7103 20.2624 16.0961 18.7156 16.0961 16.8959C16.0961 16.168 16.2326 15.3263 16.5056 14.371C16.7786 13.4156 17.3245 12.1645 18.1434 10.6178L23.6708 0.518188L28.7206 3.31604Z" fill="url(#paint0_linear_1_447)"/>
<defs>
<linearGradient id="paint0_linear_1_447" x1="5.36173" y1="0.518188" x2="8.3359" y2="13.8087" gradientUnits="userSpaceOnUse">
<stop stop-color="#F0642C"/>
<stop offset="1" stop-color="#D7450E"/>
</linearGradient>
</defs>
</svg>
