<svg width="17" height="16" viewBox="0 0 17 16" fill="none" xmlns="http://www.w3.org/2000/svg">
<path d="M13.4157 11.5128L17 14.8855L15.8158 16L12.2324 12.6266C10.8991 13.6325 9.24062 14.1797 7.53175 14.1774C3.37422 14.1774 0 11.0017 0 7.08871C0 3.17574 3.37422 0 7.53175 0C11.6893 0 15.0635 3.17574 15.0635 7.08871C15.0659 8.69706 14.4846 10.2579 13.4157 11.5128ZM11.737 10.9284C12.7991 9.90047 13.3922 8.52254 13.3898 7.08871C13.3898 4.04214 10.7679 1.57527 7.53175 1.57527C4.29477 1.57527 1.67372 4.04214 1.67372 7.08871C1.67372 10.1345 4.29477 12.6021 7.53175 12.6021C9.0552 12.6044 10.5193 12.0462 11.6115 11.0466L11.737 10.9284Z" fill="white"/>
</svg>
