<svg width="65" height="66" viewBox="0 0 65 66" fill="none" xmlns="http://www.w3.org/2000/svg">
<path d="M48.6156 19.1817L40.9844 11.5505C43.0469 9.90045 45.9344 10.1067 47.9969 11.963C49.0281 12.9942 49.6469 14.438 49.6469 15.8817C49.6469 16.913 49.2344 18.1505 48.6156 19.1817Z" stroke="white" stroke-width="3" stroke-miterlimit="10" stroke-linecap="round" stroke-linejoin="round"/>
<path d="M37.6851 30.7318L11.0789 58.9881C9.01636 61.0506 5.71636 61.0506 3.65386 58.9881C1.59136 56.9256 1.38511 53.4193 3.44761 51.3568L30.0539 23.1006L37.6851 30.7318Z" stroke="white" stroke-width="3" stroke-miterlimit="10" stroke-linecap="round" stroke-linejoin="round"/>
<path d="M52.1219 22.6877L41.1906 34.2377L26.5469 19.3877L37.4781 8.04395L52.1219 22.6877Z" stroke="white" stroke-width="3" stroke-miterlimit="10" stroke-linecap="round" stroke-linejoin="round"/>
<path d="M21.5976 20.6252C20.5664 19.5939 20.5664 17.9439 21.5976 16.9127L34.7976 2.8877C35.8289 1.85645 37.6851 1.85645 38.7164 2.8877C39.7476 3.91895 39.7476 5.56895 38.7164 6.6002L25.5164 20.6252C24.4851 21.6564 22.6289 21.6564 21.5976 20.6252Z" stroke="white" stroke-width="3" stroke-miterlimit="10" stroke-linecap="round" stroke-linejoin="round"/>
<path d="M39.9531 39.3938C38.9218 38.3625 38.9218 36.7125 39.9531 35.6812L53.1531 21.6562C54.1843 20.625 56.0406 20.625 57.0718 21.6562C58.1031 22.6875 58.1031 24.3375 57.0718 25.3688L43.8718 39.1875C42.8406 40.425 41.1906 40.425 39.9531 39.3938Z" stroke="white" stroke-width="3" stroke-miterlimit="10" stroke-linecap="round" stroke-linejoin="round"/>
<path d="M61.8168 63.938H30.0543C29.2293 63.938 28.4043 63.113 28.4043 62.288V59.6068C28.4043 58.7818 29.2293 57.9568 30.0543 57.9568H61.8168C62.6418 57.9568 63.4668 58.7818 63.4668 59.6068V62.288C63.4668 63.113 62.848 63.938 61.8168 63.938Z" stroke="white" stroke-width="3" stroke-miterlimit="10" stroke-linecap="round" stroke-linejoin="round"/>
<path d="M60.3738 57.9568H31.705V53.8318C31.705 52.8006 32.53 51.9756 33.5613 51.9756H58.5175C59.5488 51.9756 60.3738 52.8006 60.3738 53.8318V57.9568Z" stroke="white" stroke-width="3" stroke-miterlimit="10" stroke-linecap="round" stroke-linejoin="round"/>
</svg>
