<svg width="66" height="66" viewBox="0 0 66 66" fill="none" xmlns="http://www.w3.org/2000/svg">
<g clip-path="url(#clip0_1_275)">
<path d="M59.125 49.5H6.875V55H59.125V49.5Z" fill="white"/>
<path d="M60.5 57.75H5.5C4.77065 57.75 4.07118 58.0397 3.55546 58.5555C3.03973 59.0712 2.75 59.7707 2.75 60.5V63.25H63.25V60.5C63.25 59.7707 62.9603 59.0712 62.4445 58.5555C61.9288 58.0397 61.2293 57.75 60.5 57.75Z" fill="white"/>
<path d="M19.25 24.75H13.75V46.75H19.25V24.75Z" fill="white"/>
<path d="M35.75 24.75H30.25V46.75H35.75V24.75Z" fill="white"/>
<path d="M52.25 24.75H46.75V46.75H52.25V24.75Z" fill="white"/>
<path d="M61.7375 15.675L33 2.75L4.2625 15.675C3.81447 15.9175 3.43857 16.2741 3.17293 16.7088C2.90729 17.1435 2.76138 17.6407 2.75 18.15V19.25C2.75 19.9793 3.03973 20.6788 3.55546 21.1945C4.07118 21.7103 4.77065 22 5.5 22H60.5C61.2293 22 61.9288 21.7103 62.4445 21.1945C62.9603 20.6788 63.25 19.9793 63.25 19.25V18.15C63.2386 17.6407 63.0927 17.1435 62.8271 16.7088C62.5614 16.2741 62.1855 15.9175 61.7375 15.675ZM15.95 16.5L33 8.8L50.05 16.5H15.95Z" fill="white"/>
</g>
<defs>
<clipPath id="clip0_1_275">
<rect width="66" height="66" fill="white"/>
</clipPath>
</defs>
</svg>
