<svg width="65" height="65" viewBox="0 0 65 65" fill="none" xmlns="http://www.w3.org/2000/svg">
<path d="M22.9655 31.7816H21.3345L13.4145 12.2859C13.2071 11.7753 12.7109 11.4414 12.1598 11.4414C11.6087 11.4414 11.1126 11.7753 10.9052 12.2859L2.98516 31.7816H1.35417C0.606284 31.7816 0 32.3878 0 33.1357C0 38.7892 4.59945 43.3886 10.2529 43.3886H14.0668C19.7202 43.3886 24.3197 38.7892 24.3197 33.1357C24.3197 32.3878 23.7134 31.7816 22.9655 31.7816ZM12.1598 16.3935L18.4113 31.7816H5.90837L12.1598 16.3935ZM14.0668 40.6803H10.2529C6.55493 40.6803 3.46973 38.0061 2.83018 34.4899C4.76781 34.4899 18.0578 34.4899 21.4896 34.4899C20.85 38.0061 17.7649 40.6803 14.0668 40.6803Z" fill="white"/>
<path d="M63.6452 31.7816H62.0142L54.0942 12.2859C53.8868 11.7753 53.3906 11.4414 52.8395 11.4414C52.2884 11.4414 51.7923 11.7753 51.5849 12.2859L43.6648 31.7816H42.0339C41.286 31.7816 40.6797 32.3878 40.6797 33.1357C40.6797 38.7892 45.2791 43.3886 50.9326 43.3886H54.7465C60.3999 43.3886 64.9994 38.7892 64.9994 33.1357C64.9994 32.3878 64.3931 31.7816 63.6452 31.7816ZM52.8395 16.3935L59.0909 31.7816H46.5881L52.8395 16.3935ZM54.7465 40.6803H50.9326C47.2346 40.6803 44.1495 38.0061 43.5099 34.4899C45.9554 34.4899 60.2982 34.4899 62.1693 34.4899C61.5296 38.0061 58.4444 40.6803 54.7465 40.6803Z" fill="white"/>
<path d="M32.5012 5.08496C30.002 5.08496 27.9688 7.11819 27.9688 9.61737C27.9688 12.1166 30.002 14.1498 32.5012 14.1498C35.0003 14.1498 37.0336 12.1166 37.0336 9.61737C37.0336 7.11819 35.0002 5.08496 32.5012 5.08496ZM32.5012 11.4413C31.4954 11.4413 30.6771 10.6231 30.6771 9.61725C30.6771 8.61153 31.4954 7.79317 32.5012 7.79317C33.5069 7.79317 34.3252 8.61153 34.3252 9.61725C34.3252 10.623 33.5069 11.4413 32.5012 11.4413Z" fill="white"/>
<path d="M60.4676 5.08504H40.9796C39.3569 2.06139 36.1651 0 32.5 0C28.8349 0 25.6431 2.06139 24.0204 5.08504H4.53241C2.03323 5.08504 0 7.11827 0 9.61732C0 12.1165 2.03323 14.1497 4.53241 14.1497H24.0204C24.9179 15.8221 26.2953 17.1995 27.9676 18.097V48.41C24.0972 48.9978 21.0302 52.0648 20.4422 55.9352H19.787C17.2872 55.9352 15.2546 57.9576 15.2546 60.4677C15.2546 62.9669 17.2878 65.0001 19.787 65.0001H22.9653C23.7131 65.0001 24.3194 64.3938 24.3194 63.646C24.3194 62.8981 23.7131 62.2918 22.9653 62.2918H19.787C18.7813 62.2918 17.9629 61.4734 17.9629 60.4677C17.9629 59.4583 18.7808 58.6435 19.787 58.6435C24.2057 58.6441 40.5763 58.6436 45.2129 58.6435C46.2186 58.6435 47.0368 59.4619 47.0368 60.4677C47.0368 61.4773 46.2189 62.2918 45.2129 62.2918H28.3819C27.634 62.2918 27.0278 62.8981 27.0278 63.646C27.0278 64.3938 27.6342 65 28.3819 65H45.2129C47.7125 65 49.7451 62.9777 49.7451 60.4676C49.7451 57.9683 47.7119 55.9351 45.2129 55.9351H44.5576C43.9697 52.0646 40.9027 48.9976 37.0323 48.4098V34.5732C37.0323 33.8254 36.426 33.2191 35.6781 33.2191C34.9302 33.2191 34.3239 33.8254 34.3239 34.5732V48.3074H30.6759V19.059C31.8898 19.2931 33.1083 19.2934 34.3239 19.059V29.1566C34.3239 29.9045 34.9302 30.5107 35.6781 30.5107C36.426 30.5107 37.0323 29.9045 37.0323 29.1566V18.097C38.7046 17.1995 40.0819 15.8221 40.9794 14.1497H60.4675C62.9666 14.1497 64.9999 12.1165 64.9999 9.61732C65 7.11827 62.9668 5.08504 60.4676 5.08504ZM41.8043 55.9352H23.1957C23.8164 53.1248 26.3275 51.0162 29.3218 51.0162H35.6781C38.6725 51.0161 41.1835 53.1248 41.8043 55.9352ZM4.53241 11.4414C3.5267 11.4414 2.70833 10.6232 2.70833 9.61732C2.70833 8.61161 3.5267 7.79325 4.53241 7.79325H23.0584C22.8243 9.00734 22.824 10.2256 23.0584 11.4413H4.53241V11.4414ZM32.5 16.5264C28.6904 16.5264 25.591 13.4271 25.591 9.61745C25.591 5.80781 28.6904 2.70833 32.5 2.70833C36.3096 2.70833 39.409 5.80769 39.409 9.61732C39.409 13.427 36.3096 16.5264 32.5 16.5264ZM60.4676 11.4414H41.9417C42.1758 10.2276 42.1761 9.009 41.9417 7.79337H60.4677C61.4734 7.79337 62.2918 8.61174 62.2918 9.61745C62.2917 10.623 61.4733 11.4414 60.4676 11.4414Z" fill="white"/>
</svg>
